<svg width="140" height="40" viewBox="0 0 140 40" fill="none" xmlns="http://www.w3.org/2000/svg">
  <path d="M20 0C8.954 0 0 8.954 0 20s8.954 20 20 20 20-8.954 20-20S31.046 0 20 0z" fill="url(#paint0_linear)"/>
  <path d="M30 15L20 10L10 15L20 20L30 15Z" fill="#ffffff" fill-opacity="0.9"/>
  <path d="M20 20L20 30L30 25L30 15L20 20Z" fill="#ffffff" fill-opacity="0.6"/>
  <path d="M20 20L20 30L10 25L10 15L20 20Z" fill="#ffffff" fill-opacity="0.3"/>
  <path d="M50 15h5l10 15h-5l-2-3H48l-2 3h-5l9-15zm3 9l-2-3-2 3h4z" fill="#ffffff"/>
  <path d="M67 15h8c5 0 8 3 8 7.5S80 30 75 30h-8V15zm8 11c2 0 3-1 3-3.5S77 19 75 19h-3v7h3z" fill="#ffffff"/>
  <path d="M85 15h13v4h-8v2h7v3h-7v2h8v4H85V15z" fill="#ffffff"/>
  <path d="M100 15h5v9l7-9h5l-7 9 7 6h-6l-6-6v6h-5V15z" fill="#ffffff"/>
  <path d="M127 15h5v4h-5v11h-5V19h-5v-4h10z" fill="#ffffff"/>
  <defs>
    <linearGradient id="paint0_linear" x1="0" y1="0" x2="40" y2="40" gradientUnits="userSpaceOnUse">
      <stop stop-color="#6C2BD9"/>
      <stop offset="1" stop-color="#EC4899"/>
    </linearGradient>
  </defs>
</svg>